<svg width="77" height="25" viewBox="0 0 77 25" fill="none" xmlns="http://www.w3.org/2000/svg">
<path d="M17.144 1.456H18.144V0.455999H17.144V1.456ZM17.144 21V22H18.144V21H17.144ZM13.224 21H12.224V22H13.224V21ZM13.224 12.684H14.224V11.684H13.224V12.684ZM4.852 12.684V11.684H3.852V12.684H4.852ZM4.852 21V22H5.852V21H4.852ZM0.932 21H-0.0679998V22H0.932V21ZM0.932 1.456V0.455999H-0.0679998V1.456H0.932ZM4.852 1.456H5.852V0.455999H4.852V1.456ZM4.852 9.492H3.852V10.492H4.852V9.492ZM13.224 9.492V10.492H14.224V9.492H13.224ZM13.224 1.456V0.455999H12.224V1.456H13.224ZM16.144 1.456V21H18.144V1.456H16.144ZM17.144 20H13.224V22H17.144V20ZM14.224 21V12.684H12.224V21H14.224ZM13.224 11.684H4.852V13.684H13.224V11.684ZM3.852 12.684V21H5.852V12.684H3.852ZM4.852 20H0.932V22H4.852V20ZM1.932 21V1.456H-0.0679998V21H1.932ZM0.932 2.456H4.852V0.455999H0.932V2.456ZM3.852 1.456V9.492H5.852V1.456H3.852ZM4.852 10.492H13.224V8.492H4.852V10.492ZM14.224 9.492V1.456H12.224V9.492H14.224ZM13.224 2.456H17.144V0.455999H13.224V2.456ZM35.3103 14.42V15.42H36.1574L36.2967 14.5844L35.3103 14.42ZM23.9703 14.42V13.42H22.8835L22.9738 14.503L23.9703 14.42ZM25.1463 17.052L24.4697 17.7883H24.4697L25.1463 17.052ZM30.8023 16.128V15.128H30.1801L29.9052 15.6861L30.8023 16.128ZM35.0303 16.128L35.9881 16.4153L36.3743 15.128H35.0303V16.128ZM32.4543 19.824L33.0543 20.624L33.0618 20.6184L32.4543 19.824ZM23.7463 20.272L23.2502 21.1402L23.2583 21.1449L23.2665 21.1494L23.7463 20.272ZM20.9743 17.444L20.0938 17.9181L20.0995 17.9285L20.9743 17.444ZM20.9743 9.016L20.0938 8.5419L20.9743 9.016ZM23.7183 6.216L24.204 7.09016L24.204 7.09016L23.7183 6.216ZM31.7263 6.188L31.2455 7.06483L31.2514 7.06802L31.7263 6.188ZM34.4423 8.904L33.5623 9.37893L33.5668 9.38731L33.5715 9.39559L34.4423 8.904ZM31.3623 11.788V12.788H32.381L32.3621 11.7695L31.3623 11.788ZM30.2703 9.38L29.6146 10.135L29.6204 10.14L29.6262 10.1449L30.2703 9.38ZM25.2023 9.352L25.8653 10.1006L25.8667 10.0994L25.2023 9.352ZM23.9983 11.788L23.0084 11.6466L22.8453 12.788H23.9983V11.788ZM34.4223 12.908C34.4223 13.4251 34.3877 13.8727 34.3239 14.2556L36.2967 14.5844C36.3822 14.0713 36.4223 13.5109 36.4223 12.908H34.4223ZM35.3103 13.42H23.9703V15.42H35.3103V13.42ZM22.9738 14.503C23.0836 15.8208 23.5587 16.9512 24.4697 17.7883L25.8229 16.3157C25.3525 15.8834 25.0437 15.2592 24.9669 14.337L22.9738 14.503ZM24.4697 17.7883C25.3594 18.6059 26.4561 19.004 27.6943 19.004V17.004C26.9165 17.004 26.3146 16.7674 25.8229 16.3157L24.4697 17.7883ZM27.6943 19.004C28.5673 19.004 29.3771 18.8154 30.0801 18.3911C30.7856 17.9653 31.32 17.3401 31.6994 16.5698L29.9052 15.6861C29.6686 16.1666 29.377 16.4794 29.0466 16.6789C28.7135 16.8799 28.2773 17.004 27.6943 17.004V19.004ZM30.8023 17.128H35.0303V15.128H30.8023V17.128ZM34.0725 15.8407C33.6866 17.127 32.9534 18.1835 31.8469 19.0296L33.0618 20.6184C34.4939 19.5232 35.478 18.1157 35.9881 16.4153L34.0725 15.8407ZM31.8543 19.024C30.7855 19.8256 29.4469 20.252 27.7783 20.252V22.252C29.8057 22.252 31.5845 21.7264 33.0543 20.624L31.8543 19.024ZM27.7783 20.252C26.4361 20.252 25.2598 19.9599 24.2261 19.3946L23.2665 21.1494C24.6222 21.8908 26.1339 22.252 27.7783 22.252V20.252ZM24.2425 19.4038C23.2294 18.8249 22.4346 18.0167 21.8491 16.9595L20.0995 17.9285C20.858 19.298 21.9112 20.3751 23.2502 21.1402L24.2425 19.4038ZM21.8548 16.9699C21.2911 15.923 20.9943 14.6904 20.9943 13.244H18.9943C18.9943 14.9709 19.3509 16.5383 20.0938 17.9181L21.8548 16.9699ZM20.9943 13.244C20.9943 11.7767 21.292 10.5354 21.8548 9.4901L20.0938 8.5419C19.35 9.92331 18.9943 11.5006 18.9943 13.244H20.9943ZM21.8548 9.4901C22.4198 8.44079 23.1994 7.64827 24.204 7.09016L23.2327 5.34184C21.8853 6.0904 20.8355 7.16454 20.0938 8.5419L21.8548 9.4901ZM24.204 7.09016C25.2119 6.53017 26.3938 6.236 27.7783 6.236V4.236C26.1014 4.236 24.5767 4.59517 23.2327 5.34184L24.204 7.09016ZM27.7783 6.236C29.105 6.236 30.2522 6.52009 31.2455 7.06481L32.2071 5.31119C30.8858 4.58657 29.401 4.236 27.7783 4.236V6.236ZM31.2514 7.06802C32.2557 7.61005 33.0203 8.37458 33.5623 9.37893L35.3223 8.42907C34.595 7.08142 33.5489 6.03528 32.2012 5.30798L31.2514 7.06802ZM33.5715 9.39559C34.129 10.3833 34.4223 11.5442 34.4223 12.908H36.4223C36.4223 11.2478 36.0623 9.7394 35.3131 8.41241L33.5715 9.39559ZM32.3621 11.7695C32.3387 10.5014 31.8653 9.41577 30.9144 8.61509L29.6262 10.1449C30.094 10.5389 30.3486 11.0586 30.3625 11.8065L32.3621 11.7695ZM30.926 8.62497C30.0173 7.83587 28.9098 7.456 27.6663 7.456V9.456C28.4761 9.456 29.1046 9.69213 29.6146 10.135L30.926 8.62497ZM27.6663 7.456C26.4719 7.456 25.4082 7.83102 24.5379 8.60459L25.8667 10.0994C26.3404 9.67831 26.9194 9.456 27.6663 9.456V7.456ZM24.5393 8.60341C23.6731 9.37058 23.1839 10.4179 23.0084 11.6466L24.9883 11.9294C25.1114 11.0675 25.4248 10.4907 25.8653 10.1006L24.5393 8.60341ZM23.9983 12.788H31.3623V10.788H23.9983V12.788ZM42.2036 0.28H43.2036V-0.72H42.2036V0.28ZM42.2036 21V22H43.2036V21H42.2036ZM38.2836 21H37.2836V22H38.2836V21ZM38.2836 0.28V-0.72H37.2836V0.28H38.2836ZM41.2036 0.28V21H43.2036V0.28H41.2036ZM42.2036 20H38.2836V22H42.2036V20ZM39.2836 21V0.28H37.2836V21H39.2836ZM38.2836 1.28H42.2036V-0.72H38.2836V1.28ZM49.9965 0.28H50.9965V-0.72H49.9965V0.28ZM49.9965 21V22H50.9965V21H49.9965ZM46.0765 21H45.0765V22H46.0765V21ZM46.0765 0.28V-0.72H45.0765V0.28H46.0765ZM48.9965 0.28V21H50.9965V0.28H48.9965ZM49.9965 20H46.0765V22H49.9965V20ZM47.0765 21V0.28H45.0765V21H47.0765ZM46.0765 1.28H49.9965V-0.72H46.0765V1.28ZM56.7255 20.272L56.2352 21.1436L56.2457 21.1494L56.7255 20.272ZM53.8975 17.444L53.0226 17.9285L53.0284 17.9387L53.8975 17.444ZM53.9255 9.044L53.0621 8.53927L53.0564 8.5493L53.9255 9.044ZM56.8095 6.244L57.2836 7.12453L57.294 7.11879L56.8095 6.244ZM64.9295 6.244L64.445 7.11885L64.4554 7.12447L64.9295 6.244ZM67.7855 9.044L66.9164 9.53873L66.9222 9.5487L67.7855 9.044ZM67.7575 17.444L66.8999 16.9295L66.8942 16.9393L67.7575 17.444ZM64.8455 20.272L65.3196 21.1525L65.3244 21.1499L64.8455 20.272ZM62.7455 17.332L63.2244 18.2099L63.2333 18.2049L62.7455 17.332ZM64.2575 15.764L65.1372 16.2395L64.2575 15.764ZM63.6415 9.856L62.9178 10.5461L62.926 10.5547L62.9344 10.5631L63.6415 9.856ZM57.9855 9.856L57.2618 9.16592L57.2614 9.16634L57.9855 9.856ZM57.9575 16.66L57.2168 17.3318L57.225 17.3408L57.2334 17.3497L57.9575 16.66ZM60.7575 20.252C59.4153 20.252 58.2389 19.9599 57.2053 19.3946L56.2457 21.1494C57.6014 21.8908 59.1131 22.252 60.7575 22.252V20.252ZM57.2158 19.4004C56.1823 18.8191 55.3692 18.0081 54.7666 16.9493L53.0284 17.9387C53.8071 19.3066 54.8794 20.3809 56.2352 21.1436L57.2158 19.4004ZM54.7723 16.9595C54.1936 15.9146 53.8895 14.6859 53.8895 13.244H51.8895C51.8895 14.9755 52.2574 16.5467 53.0227 17.9285L54.7723 16.9595ZM53.8895 13.244C53.8895 11.8067 54.2009 10.5817 54.7946 9.5387L53.0564 8.5493C52.2688 9.933 51.8895 11.5079 51.8895 13.244H53.8895ZM54.7888 9.5487C55.4073 8.49068 56.2354 7.68888 57.2836 7.12447L56.3354 5.36353C54.9569 6.10579 53.8623 7.17066 53.0622 8.5393L54.7888 9.5487ZM57.294 7.11879C58.3478 6.53516 59.5323 6.236 60.8695 6.236V4.236C59.22 4.236 57.6979 4.60884 56.325 5.36921L57.294 7.11879ZM60.8695 6.236C62.2067 6.236 63.3912 6.53516 64.445 7.11879L65.414 5.36921C64.0411 4.60884 62.519 4.236 60.8695 4.236V6.236ZM64.4554 7.12447C65.5012 7.6876 66.3173 8.48621 66.9164 9.5387L68.6546 8.5493C67.8723 7.17513 66.7845 6.10707 65.4036 5.36353L64.4554 7.12447ZM66.9222 9.5487C67.5309 10.5899 67.8495 11.8114 67.8495 13.244H69.8495C69.8495 11.5033 69.4587 9.92473 68.6488 8.5393L66.9222 9.5487ZM67.8495 13.244C67.8495 14.672 67.5238 15.8898 66.9 16.9295L68.615 17.9585C69.4472 16.5715 69.8495 14.9894 69.8495 13.244H67.8495ZM66.8942 16.9393C66.2765 17.9958 65.4387 18.8094 64.3666 19.3941L65.3244 21.1499C66.7163 20.3906 67.8198 19.3188 68.6208 17.9487L66.8942 16.9393ZM64.3714 19.3915C63.3176 19.959 62.1204 20.252 60.7575 20.252V22.252C62.4186 22.252 63.9467 21.8917 65.3196 21.1525L64.3714 19.3915ZM60.7575 18.836C61.6322 18.836 62.4598 18.6269 63.2243 18.2099L62.2666 16.4541C61.7992 16.7091 61.3014 16.836 60.7575 16.836V18.836ZM63.2333 18.2049C64.047 17.7503 64.6811 17.0833 65.1372 16.2395L63.3778 15.2885C63.0872 15.8261 62.7134 16.2044 62.2577 16.4591L63.2333 18.2049ZM65.1372 16.2395C65.6074 15.3696 65.8175 14.357 65.8175 13.244H63.8175C63.8175 14.1096 63.6542 14.7771 63.3778 15.2885L65.1372 16.2395ZM65.8175 13.244C65.8175 11.5946 65.3757 10.176 64.3486 9.14889L62.9344 10.5631C63.4753 11.104 63.8175 11.944 63.8175 13.244H65.8175ZM64.3652 9.16592C63.4091 8.16313 62.2039 7.652 60.8135 7.652V9.652C61.6631 9.652 62.3432 9.94353 62.9178 10.5461L64.3652 9.16592ZM60.8135 7.652C59.4231 7.652 58.2179 8.16313 57.2618 9.16592L58.7092 10.5461C59.2838 9.94353 59.9639 9.652 60.8135 9.652V7.652ZM57.2614 9.16634C56.2816 10.1951 55.8655 11.6072 55.8655 13.244H57.8655C57.8655 11.9315 58.196 11.0849 58.7096 10.5457L57.2614 9.16634ZM55.8655 13.244C55.8655 14.8764 56.2697 16.2876 57.2168 17.3318L58.6982 15.9882C58.1893 15.4271 57.8655 14.5609 57.8655 13.244H55.8655ZM57.2334 17.3497C58.176 18.3394 59.3745 18.836 60.7575 18.836V16.836C59.9006 16.836 59.2324 16.5486 58.6816 15.9703L57.2334 17.3497ZM76.009 16.884L76.9321 17.2684L77.5086 15.884H76.009V16.884ZM72.733 24.752V25.752H73.3998L73.6561 25.1364L72.733 24.752ZM70.213 24.752L69.2387 24.5266L68.9552 25.752H70.213V24.752ZM72.033 16.884V15.884H71.2379L71.0587 16.6586L72.033 16.884ZM75.0858 16.4996L71.8098 24.3676L73.6561 25.1364L76.9321 17.2684L75.0858 16.4996ZM72.733 23.752H70.213V25.752H72.733V23.752ZM71.1872 24.9774L73.0072 17.1094L71.0587 16.6586L69.2387 24.5266L71.1872 24.9774ZM72.033 17.884H76.009V15.884H72.033V17.884Z" fill="black"/>
</svg>
