<svg width="30" height="30" viewBox="0 0 30 30" fill="none" xmlns="http://www.w3.org/2000/svg">
<path d="M22.9829 30H6.96524C3.17523 30 0.104492 26.885 0.104492 23.0576V12.7067C0.104492 10.8069 1.26639 8.41829 2.76027 7.24492L10.2158 1.37806C12.4566 -0.381992 16.0391 -0.465804 18.3629 1.1825L26.9112 7.23095C28.5572 8.39036 29.8436 10.8768 29.8436 12.9023V23.0715C29.8436 26.885 26.7729 30 22.9829 30ZM11.4884 3.02637L4.03282 8.89323C3.05074 9.67548 2.17932 11.4495 2.17932 12.7067V23.0576C2.17932 25.7256 4.3233 27.9047 6.96524 27.9047H22.9829C25.6248 27.9047 27.7688 25.7395 27.7688 23.0715V12.9023C27.7688 11.5613 26.8144 9.70341 25.7216 8.9491L17.1734 2.90065C15.5965 1.78315 12.9961 1.83903 11.4884 3.02637Z" fill="#F1F0F5"/>
<path d="M14.9739 24.4125C14.4068 24.4125 13.9365 23.9376 13.9365 23.3649V19.1742C13.9365 18.6015 14.4068 18.1266 14.9739 18.1266C15.5411 18.1266 16.0113 18.6015 16.0113 19.1742V23.3649C16.0113 23.9376 15.5411 24.4125 14.9739 24.4125Z" fill="#F1F0F5"/>
</svg>
