<svg width="20" height="22" viewBox="0 0 20 22" fill="none" xmlns="http://www.w3.org/2000/svg">
<path d="M3.37404 18.5578C2.7484 18.5578 2.16379 18.3423 1.74328 17.9423C1.20994 17.4397 0.953532 16.6807 1.04584 15.8602L1.42533 12.5372C1.49712 11.9115 1.87661 11.0807 2.31763 10.6295L10.7382 1.7167C12.8407 -0.508944 15.0356 -0.570483 17.2612 1.53208C19.4869 3.63465 19.5484 5.82952 17.4459 8.05516L9.02534 16.9679C8.59457 17.4295 7.79456 17.8602 7.16892 17.9629L3.86635 18.5269C3.69199 18.5372 3.53815 18.5578 3.37404 18.5578ZM14.0305 1.52183C13.2407 1.52183 12.5535 2.01413 11.8561 2.7526L3.43558 11.6757C3.23045 11.8911 2.99456 12.4039 2.95353 12.7014L2.57404 16.0243C2.53302 16.3628 2.61507 16.6397 2.79969 16.8141C2.9843 16.9884 3.26122 17.05 3.59969 16.9987L6.90225 16.4347C7.19969 16.3834 7.69199 16.1166 7.89712 15.9013L16.3176 6.98849C17.5894 5.63465 18.051 4.38336 16.1946 2.63977C15.3741 1.85003 14.6664 1.52183 14.0305 1.52183Z" fill="#292D32"/>
<path d="M15.4776 9.76772C15.4571 9.76772 15.4263 9.76772 15.4058 9.76772C12.2058 9.44977 9.63147 7.01906 9.13916 3.83957C9.07762 3.41906 9.3648 3.02931 9.78531 2.95752C10.2058 2.89598 10.5956 3.18316 10.6674 3.60367C11.0571 6.08572 13.0674 7.99342 15.5699 8.23957C15.9904 8.28059 16.2981 8.66008 16.2571 9.08054C16.2058 9.47029 15.8674 9.76772 15.4776 9.76772Z" fill="#292D32"/>
<path d="M19.2308 21.8705H0.769231C0.348718 21.8705 0 21.5218 0 21.1013C0 20.6807 0.348718 20.332 0.769231 20.332H19.2308C19.6513 20.332 20 20.6807 20 21.1013C20 21.5218 19.6513 21.8705 19.2308 21.8705Z" fill="#292D32"/>
</svg>
