<svg width="30" height="30" viewBox="0 0 30 30" fill="none" xmlns="http://www.w3.org/2000/svg">
<path d="M15.0609 30C14.0402 30 13.0042 29.7884 12.1967 29.3511L3.81739 24.8795C0.4047 22.7495 0.191406 22.4251 0.191406 19.0819V10.9286C0.191406 7.58552 0.389464 7.26108 3.74122 5.15928L12.1815 0.645351C13.7812 -0.215117 16.295 -0.215117 17.8947 0.645351L26.3045 5.13107C29.7172 7.26108 29.9305 7.58552 29.9305 10.9286V19.0678C29.9305 22.411 29.7325 22.7354 26.3807 24.8372L17.9404 29.3511C17.1177 29.7884 16.0817 30 15.0609 30ZM15.0609 2.12648C14.4211 2.12648 13.7964 2.23933 13.3546 2.47914L4.97527 6.96485C2.49193 8.51652 2.49193 8.51652 2.49193 10.9286V19.0678C2.49193 21.48 2.49193 21.48 5.03621 23.0739L13.3546 27.5173C14.2535 27.9969 15.8837 27.9969 16.7825 27.5173L25.1619 23.0316C27.63 21.48 27.63 21.48 27.63 19.0678V10.9286C27.63 8.51652 27.63 8.51652 25.0857 6.92253L16.7673 2.47914C16.3255 2.23933 15.7008 2.12648 15.0609 2.12648Z" fill="#E8E8E8"/>
<path d="M15.0609 20.2953C11.9072 20.2953 9.34766 17.9255 9.34766 15.0056C9.34766 12.0856 11.9072 9.71582 15.0609 9.71582C18.2146 9.71582 20.7741 12.0856 20.7741 15.0056C20.7741 17.9255 18.2146 20.2953 15.0609 20.2953ZM15.0609 11.8317C13.1717 11.8317 11.6329 13.2564 11.6329 15.0056C11.6329 16.7547 13.1717 18.1794 15.0609 18.1794C16.95 18.1794 18.4888 16.7547 18.4888 15.0056C18.4888 13.2564 16.95 11.8317 15.0609 11.8317Z" fill="#E8E8E8"/>
</svg>
